<?xml version="1.0" standalone="no"?>
<!DOCTYPE svg PUBLIC "-//W3C//DTD SVG 20010904//EN"
 "http://www.w3.org/TR/2001/REC-SVG-20010904/DTD/svg10.dtd">
<svg version="1.0" xmlns="http://www.w3.org/2000/svg"
 width="225.000000pt" height="225.000000pt" viewBox="0 0 225.000000 225.000000"
 preserveAspectRatio="xMidYMid meet">

<g transform="translate(0.000000,225.000000) scale(0.100000,-0.100000)"
fill="#000000" stroke="none">
<path d="M945 1983 c-342 -73 -609 -342 -682 -688 -19 -88 -12 -312 12 -400
23 -86 111 -260 146 -290 35 -29 56 -31 86 -10 41 29 39 69 -7 145 -103 170
-134 376 -85 565 8 33 36 103 62 155 38 79 61 110 132 181 71 71 102 94 181
132 52 26 121 54 153 62 191 48 393 17 568 -86 36 -22 75 -39 86 -39 29 0 61
29 69 63 5 23 0 33 -28 60 -68 64 -227 133 -362 156 -83 15 -248 12 -331 -6z
m302 -7 c108 -16 166 -33 258 -76 129 -60 172 -112 129 -154 -23 -24 -58 -19
-112 14 -134 82 -261 114 -429 108 -201 -8 -343 -70 -489 -213 -169 -167 -246
-374 -223 -603 12 -115 33 -181 92 -294 45 -84 50 -100 42 -125 -13 -37 -57
-44 -90 -13 -34 32 -112 195 -134 282 -89 347 36 702 324 919 96 72 236 130
370 153 104 18 152 18 262 2z"/>
<path d="M1758 1636 c-39 -30 -40 -61 -1 -133 49 -94 78 -175 93 -260 14 -88
30 -98 19 -13 -12 81 -43 171 -90 257 -44 81 -47 102 -21 126 37 34 67 22 106
-40 150 -240 165 -571 37 -829 -53 -106 -76 -134 -110 -134 -61 0 -67 51 -17
137 44 74 82 186 95 286 13 95 14 127 2 127 -4 0 -11 -39 -14 -87 -7 -109 -35
-203 -93 -310 -24 -46 -44 -92 -44 -103 0 -29 44 -70 74 -70 70 0 182 238 206
437 20 166 -11 336 -92 497 -59 117 -102 149 -150 112z"/>
<path d="M810 1125 l0 -445 120 0 120 0 0 175 0 175 155 0 155 0 0 95 0 94
-157 3 -158 3 -3 77 -3 78 198 2 198 3 3 93 3 92 -316 0 -315 0 0 -445z m610
350 l0 -75 -192 -2 -193 -3 0 -90 0 -90 153 -3 152 -3 0 -79 0 -80 -58 0 c-33
0 -100 -3 -150 -6 l-92 -7 0 -171 0 -171 -105 3 -105 3 0 425 0 424 295 0 295
0 0 -75z"/>
<path d="M1495 490 c-38 -22 -106 -52 -150 -67 -69 -23 -97 -27 -210 -27 -154
-1 -217 13 -350 79 -101 50 -135 55 -165 23 -47 -50 -13 -98 111 -159 160 -79
326 -109 489 -89 204 25 440 136 440 206 0 31 -42 74 -72 74 -13 -1 -54 -19
-93 -40z m-710 -31 c242 -121 482 -115 718 18 87 49 137 42 137 -17 0 -34 -17
-49 -110 -98 -144 -77 -287 -108 -449 -99 -129 7 -210 27 -319 78 -114 53
-142 74 -142 109 0 32 23 60 48 60 9 0 61 -23 117 -51z"/>
</g>
</svg>
