<?xml version="1.0" standalone="no"?>
<!DOCTYPE svg PUBLIC "-//W3C//DTD SVG 20010904//EN"
 "http://www.w3.org/TR/2001/REC-SVG-20010904/DTD/svg10.dtd">
<svg version="1.0" xmlns="http://www.w3.org/2000/svg"
 width="225.000000pt" height="225.000000pt" viewBox="0 0 225.000000 225.000000"
 preserveAspectRatio="xMidYMid meet">

<g transform="translate(0.000000,225.000000) scale(0.100000,-0.100000)"
fill="#000000" stroke="none">
<path d="M151 2238 c-63 -14 -125 -79 -140 -147 -15 -73 -15 -1859 0 -1932 16
-72 76 -132 148 -148 73 -15 1859 -15 1932 0 72 16 132 76 148 148 15 73 15
1859 0 1932 -16 72 -76 132 -148 148 -67 14 -1875 14 -1940 -1z m466 -260 c48
-22 99 -75 119 -124 20 -47 17 -141 -5 -189 -36 -80 -107 -132 -191 -142 -69
-8 -132 12 -186 60 -56 49 -84 110 -84 180 1 180 182 292 347 215z m1126 -558
c125 -39 216 -152 253 -315 13 -55 17 -150 21 -440 5 -360 5 -371 -15 -395
-20 -25 -22 -25 -175 -25 -137 0 -157 2 -175 19 -20 17 -21 30 -24 365 -4 385
-5 390 -72 449 -69 60 -180 52 -246 -17 -64 -67 -70 -106 -70 -458 0 -388 15
-357 -170 -361 -73 -2 -143 -1 -155 2 -57 14 -55 -11 -55 589 0 304 4 557 8
563 18 27 56 34 187 34 131 0 137 -1 160 -25 19 -18 25 -35 25 -66 l0 -41 54
49 c74 68 147 92 282 93 75 0 119 -5 167 -20z m-1069 -11 l26 -20 0 -549 c0
-524 -1 -549 -19 -571 -19 -23 -24 -24 -171 -24 -147 0 -152 1 -171 24 -18 22
-19 47 -19 568 l0 544 25 24 c23 24 29 25 163 25 126 0 142 -2 166 -21z"/>
</g>
</svg>
